<?xml version="1.0" standalone="no"?>
<!DOCTYPE svg PUBLIC "-//W3C//DTD SVG 20010904//EN"
 "http://www.w3.org/TR/2001/REC-SVG-20010904/DTD/svg10.dtd">
<svg version="1.0" xmlns="http://www.w3.org/2000/svg"
 width="225.000000pt" height="225.000000pt" viewBox="0 0 225.000000 225.000000"
 preserveAspectRatio="xMidYMid meet">

<g transform="translate(0.000000,225.000000) scale(0.100000,-0.100000)"
fill="#000000" stroke="none">
<path d="M0 1570 l0 -680 153 0 152 0 92 -193 c50 -105 145 -304 211 -442
l119 -250 329 -3 329 -2 325 347 c506 540 454 478 441 513 l-10 30 55 0 54 0
0 680 0 680 -1125 0 -1125 0 0 -680z m1742 252 c70 -70 128 -134 128 -142 0
-23 -1082 -1100 -1105 -1100 -23 0 -585 557 -585 579 0 23 251 271 275 271 13
0 72 -52 165 -145 l145 -145 405 405 c254 253 413 405 425 405 11 0 72 -52
147 -128z"/>
</g>
</svg>
